/* XPM */
static char * COMMENT_ICON_xpm[] = {
"20 20 4 1",
" 	c None",
".	c #000000",
"+	c #CCCCCC",
"@	c #2B2B2B",
"                    ",
"                    ",
"                    ",
"  ................  ",
" .++++++++++++++++. ",
".++++++++++++++++++.",
".++..............++.",
".++++++++++++++++++.",
".++++++++++++++++++.",
".++..............++.",
".++++++++++++++++++.",
".++++++++++++++++++.",
".++..............++.",
".++++++++++++++++++@",
" .+++++++++++++++++.",
"  .............+++. ",
"              .+++. ",
"               .++. ",
"                .+. ",
"                 .  "};
