/* XPM */
static char * FILE_SAVE_ICON_xpm[] = {
"20 20 215 2",
"  	c None",
". 	c #FADFC1",
"+ 	c #81796E",
"@ 	c #3D464B",
"# 	c #3E3633",
"$ 	c #1D3041",
"% 	c #3D3C3A",
"& 	c #33383E",
"* 	c #3F3734",
"= 	c #2F383F",
"- 	c #433022",
"; 	c #323337",
"> 	c #323E4A",
", 	c #4F3524",
"' 	c #433D3F",
") 	c #B6BFD0",
"! 	c #D5B28A",
"~ 	c #464032",
"{ 	c #252B2B",
"] 	c #342F29",
"^ 	c #7997B9",
"/ 	c #F8F8F8",
"( 	c #FBFFFF",
"_ 	c #FCF4F2",
": 	c #FCFFFF",
"< 	c #FFFADF",
"[ 	c #EFEFED",
"} 	c #E4FDFF",
"| 	c #C29D71",
"1 	c #372F2D",
"2 	c #48526B",
"3 	c #C0D2EA",
"4 	c #D0A271",
"5 	c #353125",
"6 	c #2F312E",
"7 	c #393631",
"8 	c #7199CC",
"9 	c #F5F9F8",
"0 	c #F8FDF7",
"a 	c #FFFCFD",
"b 	c #FCFBFF",
"c 	c #BD986E",
"d 	c #44433E",
"e 	c #6B91C2",
"f 	c #CC9B61",
"g 	c #362E2B",
"h 	c #2B334A",
"i 	c #4C5D77",
"j 	c #BAE0F7",
"k 	c #D19A64",
"l 	c #35322B",
"m 	c #383733",
"n 	c #363435",
"o 	c #598CCE",
"p 	c #F9FFFF",
"q 	c #FCFFF6",
"r 	c #FFFAFB",
"s 	c #FFFDFF",
"t 	c #CA9D66",
"u 	c #323228",
"v 	c #5C8DCF",
"w 	c #CE9357",
"x 	c #454138",
"y 	c #1F2531",
"z 	c #253449",
"A 	c #6D97BD",
"B 	c #D59660",
"C 	c #353430",
"D 	c #35312E",
"E 	c #302F34",
"F 	c #5D98E8",
"G 	c #F8FFFF",
"H 	c #F6FDED",
"I 	c #FFFCFF",
"J 	c #CD9A59",
"K 	c #343225",
"L 	c #629DED",
"M 	c #DB9E65",
"N 	c #312F23",
"O 	c #323836",
"P 	c #28303B",
"Q 	c #6E98C8",
"R 	c #DE9B66",
"S 	c #393738",
"T 	c #342E2E",
"U 	c #32323A",
"V 	c #5290E7",
"W 	c #F7FFFF",
"X 	c #FCFFEF",
"Y 	c #FFF7F8",
"Z 	c #D59C57",
"` 	c #393728",
" .	c #5292E9",
"..	c #D99A65",
"+.	c #343428",
"@.	c #323628",
"#.	c #303539",
"$.	c #6F98D0",
"%.	c #D09F64",
"&.	c #3A2D37",
"*.	c #2E3726",
"=.	c #333438",
"-.	c #727989",
";.	c #E2EAF7",
">.	c #F7FAFF",
",.	c #FFFFFF",
"'.	c #FBFAF5",
").	c #FFFFF6",
"!.	c #FEFAEF",
"~.	c #796B60",
"{.	c #403D46",
"].	c #362B33",
"^.	c #2F362E",
"/.	c #6294D9",
"(.	c #3A2D36",
"_.	c #1D262F",
":.	c #3D444C",
"<.	c #31363C",
"[.	c #2E3235",
"}.	c #3A3A3A",
"|.	c #3B3833",
"1.	c #37322C",
"2.	c #4D4135",
"3.	c #312E37",
"4.	c #3A2F37",
"5.	c #323C33",
"6.	c #6597DE",
"7.	c #353D3F",
"8.	c #2F3437",
"9.	c #282ALBEDO",
"0.	c #333436",
"a.	c #373737",
"b.	c #312F30",
"c.	c #343031",
"d.	c #332F2E",
"e.	c #382E22",
"f.	c #302F37",
"g.	c #3C323A",
"h.	c #2D372E",
"i.	c #6092D9",
"j.	c #2F342E",
"k.	c #2D322E",
"l.	c #353734",
"m.	c #353736",
"n.	c #303032",
"o.	c #312F32",
"p.	c #353338",
"q.	c #3A353B",
"r.	c #3D3528",
"s.	c #33363D",
"t.	c #39323A",
"u.	c #263129",
"v.	c #6193DA",
"w.	c #33342E",
"x.	c #363731",
"y.	c #383934",
"z.	c #2F2F2D",
"A.	c #2E2E2E",
"B.	c #363437",
"C.	c #323035",
"D.	c #302D34",
"E.	c #393529",
"F.	c #2F333C",
"G.	c #353037",
"H.	c #29362D",
"I.	c #689CE5",
"J.	c #32312C",
"K.	c #33322E",
"L.	c #333230",
"M.	c #323234",
"N.	c #373528",
"O.	c #2B323A",
"P.	c #333039",
"Q.	c #2B3831",
"R.	c #669AE3",
"S.	c #3A3635",
"T.	c #373332",
"U.	c #343331",
"V.	c #30302E",
"W.	c #343432",
"X.	c #363634",
"Y.	c #39392D",
"Z.	c #2B343D",
"`.	c #33323A",
" +	c #27362F",
".+	c #6094DF",
"++	c #393337",
"@+	c #352F31",
"#+	c #322E2F",
"$+	c #383433",
"%+	c #32312D",
"&+	c #30312C",
"*+	c #383933",
"=+	c #2F302A",
"-+	c #35372A",
";+	c #28323B",
">+	c #283730",
",+	c #6397E2",
"'+	c #BFB4A2",
")+	c #433B2E",
"!+	c #2D2A25",
"~+	c #363636",
"{+	c #333333",
"]+	c #333029",
"^+	c #36373B",
"/+	c #222B3A",
"(+	c #2D3B55",
"_+	c #97A5BF",
":+	c #80796F",
"<+	c #4D4946",
"[+	c #313133",
"}+	c #343434",
"|+	c #2E2F31",
"1+	c #323A45",
"2+	c #6A7787",
"                                        ",
"                                        ",
"  . + @ # $ % & * = - ; > , ' )         ",
"  ! ~ { ] ^ / ( _ : < [ } | 1 2 3       ",
"  4 5 6 7 8 9 0 a b c d e f g h i j     ",
"  k l m n o p q r s t u v w x y z A     ",
"  B C D E F G H I a J K L M N O P Q     ",
"  R S T U V W X s Y Z `  ...+.@.#.$.    ",
"  %.&.*.=.-.;.( >.,.'.).!.~.{.].^./.    ",
"  %.(.*.=._.:.<.[.}.C |.1.2.3.4.5.6.    ",
"  %.(.*.=.7.8.9.0.a.b.c.d.e.f.g.h.i.    ",
"  %.(.*.=.j.k.l.m.n.o.p.q.r.s.t.u.v.    ",
"  %.(.*.=.w.x.y.z.A.B.C.D.E.F.G.H.I.    ",
"  %.(.*.=.J.K.K.L.S }.M.n.N.O.P.Q.R.    ",
"  %.(.*.=.S.T.d.U.L.V.W.X.Y.Z.`. +.+    ",
"  %.(.*.=.++@+#+$+%+&+*+=+-+;+`.>+,+    ",
"  '+)+!+~+{+{+{+{+{+{+{+{+]+^+/+(+_+    ",
"    :+<+[+}+}+}+}+}+}+}+}+7 |+1+2+      ",
"                                        ",
"                                        "};
