/* XPM */
static char * FILE_NEW_ICON_xpm[] = {
"20 20 66 1",
" 	c None",
".	c #FFE8CA",
"+	c #7D7479",
"@	c #343B33",
"#	c #343434",
"$	c #31363C",
"%	c #D1AE88",
"&	c #39343B",
"*	c #223941",
"=	c #333333",
"-	c #C79B6C",
";	c #3B353F",
">	c #678EAB",
",	c #FEFEFE",
"'	c #F1EAE2",
")	c #423D2A",
"!	c #6F8BB0",
"~	c #D5A269",
"{	c #38323E",
"]	c #5F95C3",
"^	c #FFFFFF",
"/	c #EEE4DA",
"(	c #3D3624",
"_	c #1D3453",
":	c #D39C5C",
"<	c #342E3A",
"[	c #5A98D3",
"}	c #CCC8C2",
"|	c #2C3B4E",
"1	c #5D9ED4",
"2	c #D79C58",
"3	c #3A303B",
"4	c #5699DD",
"5	c #FAFFF9",
"6	c #D99B60",
"7	c #36332E",
"8	c #5596CE",
"9	c #D99D57",
"0	c #40363F",
"a	c #5397DE",
"b	c #F8FFFD",
"c	c #D89757",
"d	c #383129",
"e	c #5798D0",
"f	c #DB9758",
"g	c #5A96D5",
"h	c #FFFFFA",
"i	c #D8975F",
"j	c #363533",
"k	c #5499D4",
"l	c #5398D3",
"m	c #BF9F78",
"n	c #FDFDFD",
"o	c #FFFDF9",
"p	c #B09E92",
"q	c #313D49",
"r	c #7090A9",
"s	c #C9AC8A",
"t	c #3D3C3A",
"u	c #34271E",
"v	c #27313A",
"w	c #FCE4CA",
"x	c #837A6B",
"y	c #2ALBEDO2F",
"z	c #453E38",
"A	c #91AABE",
"                    ",
"  .+@######$        ",
"  %&*======$$       ",
"  -;>,,,,,,')!      ",
"  ~{]^^^^^^/(_#     ",
"  :<[^^^^^^^}|==1   ",
"  234,,,,,,,,5678   ",
"  90a^^^^^^^^bcde   ",
"  f$g^^^^^^^^hijk   ",
"  f$g^^^^^^^^hijk   ",
"  f$g^^^^^^^^hijk   ",
"  f$g^^^^^^^^hijl   ",
"  f$g^^^^^^^^hijl   ",
"  f$g^^^^^^^^hijk   ",
"  f$g^^^^^^^^hijk   ",
"  f$g^^^^^^^^hijk   ",
"  m)!nnnnnnnnopqr   ",
"  s(_########tuv    ",
"  wx|========yzA    ",
"                    "};
