/* XPM */
static char * FILE_OPEN_ICON_xpm[] = {
"20 20 132 2",
"  	c None",
". 	c #B8937F",
"+ 	c #3D3D36",
"@ 	c #637A92",
"# 	c #A6836E",
"$ 	c #33392E",
"% 	c #2E2E38",
"& 	c #383D41",
"* 	c #67788C",
"= 	c #8A6952",
"- 	c #393421",
"; 	c #302F31",
"> 	c #303A3B",
", 	c #342A27",
"' 	c #263D45",
") 	c #536274",
"! 	c #BE9F89",
"~ 	c #877963",
"{ 	c #68655E",
"] 	c #3B372B",
"^ 	c #3A2E27",
"/ 	c #30353A",
"( 	c #3F5966",
"_ 	c #6C7C92",
": 	c #9BA5B8",
"< 	c #C6B6A0",
"[ 	c #544231",
"} 	c #34332E",
"| 	c #333943",
"1 	c #7E95B1",
"2 	c #FFC898",
"3 	c #51413A",
"4 	c #2F3338",
"5 	c #34372C",
"6 	c #649EE0",
"7 	c #FFC793",
"8 	c #473934",
"9 	c #2D3238",
"0 	c #434338",
"a 	c #7099DC",
"b 	c #EBBE8A",
"c 	c #52453F",
"d 	c #32323C",
"e 	c #3D3E3A",
"f 	c #70A3DE",
"g 	c #827980",
"h 	c #646B75",
"i 	c #FFEDC1",
"j 	c #C8BEB9",
"k 	c #BBB9C4",
"l 	c #BEC0C0",
"m 	c #B5EBFF",
"n 	c #827A5A",
"o 	c #6F7377",
"p 	c #B4AB9A",
"q 	c #5B4F50",
"r 	c #676470",
"s 	c #C3CDD6",
"t 	c #D0C6A3",
"u 	c #8B7967",
"v 	c #443A52",
"w 	c #91ACAF",
"x 	c #CAB89F",
"y 	c #392811",
"z 	c #383032",
"A 	c #525765",
"B 	c #5A6066",
"C 	c #777782",
"D 	c #9EB7CD",
"E 	c #D4BE93",
"F 	c #937E6E",
"G 	c #625B5E",
"H 	c #5A5A4E",
"I 	c #3F3F40",
"J 	c #1F2835",
"K 	c #9BBBD4",
"L 	c #CFB396",
"M 	c #442E13",
"N 	c #312E30",
"O 	c #273241",
"P 	c #262D2E",
"Q 	c #211F2B",
"R 	c #81AACD",
"S 	c #C2AA7C",
"T 	c #39281C",
"U 	c #2E2C33",
"V 	c #343327",
"W 	c #343130",
"X 	c #252D37",
"Y 	c #8AB2D2",
"Z 	c #503B28",
"` 	c #33292A",
" .	c #31323D",
"..	c #323534",
"+.	c #2E2E31",
"@.	c #424F5B",
"#.	c #383C3F",
"$.	c #333333",
"%.	c #363536",
"&.	c #5D5454",
"*.	c #534C40",
"=.	c #32312B",
"-.	c #34352E",
";.	c #322F2A",
">.	c #33303B",
",.	c #303349",
"'.	c #5F4F40",
").	c #342728",
"!.	c #2C272F",
"~.	c #2C2C2B",
"{.	c #2C2C2C",
"].	c #2B2A29",
"^.	c #2B2B2B",
"/.	c #2E2C31",
"(.	c #292727",
"_.	c #2C2C25",
":.	c #2D2E26",
"<.	c #292B2C",
"[.	c #2E2D3B",
"}.	c #3B3951",
"|.	c #D0C4B9",
"1.	c #B7AEAF",
"2.	c #B0ABB1",
"3.	c #B0B0B0",
"4.	c #B0B0B1",
"5.	c #B5B2B7",
"6.	c #AFAEAD",
"7.	c #AFAFAA",
"8.	c #B0B1AB",
"9.	c #AFB0B0",
"0.	c #B5B4C0",
"a.	c #BFBDD2",
"                                        ",
"                                        ",
"                                        ",
"                  . + @                 ",
"                # $ % & *               ",
"              = - ; > , ' )             ",
"            ! ~ { ] ^ / ( _ :           ",
"                < [ } | 1               ",
"                2 3 4 5 6               ",
"                7 8 9 0 a               ",
"                b c d e f               ",
"        g h     i j k l m     n o       ",
"    p q r s                   t u v w   ",
"  x y z A B C D           E F G H I J K ",
"  L M N O P Q R           S T U V W X Y ",
"    Z `  ...+.@.#.$.$.%.&.*.=.-.;.>.,.  ",
"    '.).!.~.{.].^.{.{.{./.(._.:.<.[.}.  ",
"    |.1.2.3.3.3.3.3.3.4.5.6.7.8.9.0.a.  ",
"                                        ",
"                                        "};
