/* XPM */
static char * FRACTURE_MEASURE_ICON_xpm[] = {
"20 20 2 1",
" 	c None",
".	c #000000",
"                    ",
"                    ",
"  ..            ..  ",
"  ...          ...  ",
"  ....        ....  ",
"  .. .. .... .. ..  ",
"  ..  ...  ...  ..  ",
"  ..   ..  ..   ..  ",
"  ..    ....    ..  ",
"  ..            ..  ",
"  ..            ..  ",
"  ..            ..  ",
"  ..            ..  ",
"  ..            ..  ",
"  ..            ..  ",
"  ..    ....    ..  ",
"  .......  .......  ",
"  .......  .......  ",
"        ....        ",
"                    "};
