/* XPM */
static char * FRAME_ICON16x16_xpm[] = {
"16 16 166 2",
"  	c None",
". 	c #9CD98D",
"+ 	c #91D580",
"@ 	c #B9E4AE",
"# 	c #E4F5E0",
"$ 	c #CDECC6",
"% 	c #DDF2D8",
"& 	c #D1EDCA",
"* 	c #A6DD98",
"= 	c #ACDFA0",
"- 	c #BAE4AF",
"; 	c #A2DB93",
"> 	c #9AD88A",
", 	c #87D174",
"' 	c #D7F0D1",
") 	c #D2EECB",
"! 	c #CBEBC3",
"~ 	c #C2E7B8",
"{ 	c #BAE5B0",
"] 	c #8CD37A",
"^ 	c #377627",
"/ 	c #73C95E",
"( 	c #9DD98E",
"_ 	c #8FD47E",
": 	c #94D684",
"< 	c #9AD88B",
"[ 	c #AEE0A2",
"} 	c #E6F5E2",
"| 	c #DBF1D5",
"1 	c #D6EFD0",
"2 	c #CAEBC2",
"3 	c #C3E8BA",
"4 	c #BCE5B2",
"5 	c #85D072",
"6 	c #2D6020",
"7 	c #66C44F",
"8 	c #C0E7B6",
"9 	c #C9EAC0",
"0 	c #D6EFCF",
"a 	c #E3F4DE",
"b 	c #C4E8BA",
"c 	c #DEF2D9",
"d 	c #D8F0D2",
"e 	c #C9EAC1",
"f 	c #C2E8B9",
"g 	c #BCE5B1",
"h 	c #2C5F20",
"i 	c #8CD37B",
"j 	c #52AF3A",
"k 	c #5FC146",
"l 	c #CAEAC1",
"m 	c #D2EECC",
"n 	c #E5F5E1",
"o 	c #DFF3DA",
"p 	c #95D685",
"q 	c #B1E1A5",
"r 	c #4EA838",
"s 	c #59BF40",
"t 	c #CCEBC4",
"u 	c #DAF1D4",
"v 	c #D1EDC9",
"w 	c #ADDFA0",
"x 	c #397A29",
"y 	c #75CA5F",
"z 	c #A9DE9C",
"A 	c #4BA136",
"B 	c #56B83D",
"C 	c #7ECD6A",
"D 	c #B4E2A8",
"E 	c #5CC043",
"F 	c #4DA437",
"G 	c #A1DB93",
"H 	c #A2DB94",
"I 	c #A4DC96",
"J 	c #499C34",
"K 	c #53B33C",
"L 	c #A8DE9B",
"M 	c #C1E7B8",
"N 	c #8DD37B",
"O 	c #9BD98C",
"P 	c #9EDA8F",
"Q 	c #469632",
"R 	c #51AE3A",
"S 	c #ADE0A1",
"T 	c #54B43C",
"U 	c #56B93E",
"V 	c #91D581",
"W 	c #96D786",
"X 	c #96D685",
"Y 	c #92D582",
"Z 	c #438F30",
"` 	c #4FA938",
" .	c #C5E9BC",
"..	c #BBE5B1",
"+.	c #B5E2A9",
"@.	c #98D889",
"#.	c #28551C",
"$.	c #254F1A",
"%.	c #244D1A",
"&.	c #244E1A",
"*.	c #234B19",
"=.	c #214818",
"-.	c #1E4116",
";.	c #4CA336",
">.	c #BDE6B3",
",.	c #A5DD98",
"'.	c #6AC654",
").	c #377728",
"!.	c #57B93E",
"~.	c #57BB3E",
"{.	c #58BD3F",
"].	c #5AC041",
"^.	c #5FC247",
"/.	c #367427",
"(.	c #ABDF9E",
"_.	c #B3E2A7",
":.	c #B8E4AD",
"<.	c #AEE0A1",
"[.	c #459431",
"}.	c #53B23B",
"|.	c #7FCE6B",
"1.	c #81CE6D",
"2.	c #7DCD69",
"3.	c #7ACC66",
"4.	c #75CA60",
"5.	c #3A7C29",
"6.	c #469732",
"7.	c #B6E3AA",
"8.	c #B2E1A6",
"9.	c #9FDA90",
"0.	c #97D787",
"a.	c #26511B",
"b.	c #60C247",
"c.	c #7CCD68",
"d.	c #78CB63",
"e.	c #72C95C",
"f.	c #449130",
"g.	c #B7E3AC",
"h.	c #A3DC95",
"i.	c #99D889",
"j.	c #65C44D",
"k.	c #7BCC66",
"l.	c #70C85A",
"m.	c #6AC653",
"n.	c #347025",
"o.	c #428D2F",
"p.	c #B0E1A4",
"q.	c #A3DB94",
"r.	c #A0DA91",
"s.	c #95D684",
"t.	c #74CA5F",
"u.	c #6CC655",
"v.	c #6FC859",
"w.	c #69C552",
"x.	c #63C34B",
"y.	c #326B24",
"z.	c #40882D",
"A.	c #9BD88B",
"B.	c #4DA537",
"C.	c #71C85B",
"D.	c #6FC758",
"E.	c #68C550",
"F.	c #61C249",
"G.	c #5BC042",
"H.	c #418B2E",
"I.	c #449331",
"      . + @ # $ % & * = - ; > , ",
"        ' ) % $ ' ) ! ~ { ] ^ / ",
"( _ : < [ } | 1 ) 2 3 4 5 6 ^ 7 ",
"8 9 0 a b c d & e f g 5 h i j k ",
"l 1 m n o d & e f g p h 5 q r s ",
"    t u d v e f g w x y z z A B ",
"C   t 0 & e f g D E F G H I J K ",
"3 : L M e f g D p 6 N O P O Q R ",
"c & v ! f g D S T U V W X Y Z ` ",
"  v 2  ...+.S @.#.$.%.&.*.=.-.;.",
"    M >.+.S ,.'.).!.~.{.].^./.J ",
"  (._.:.<.,.P [.}.|.1.2.3.4.5.6.",
": * 7.8.L 9.0.a.b.c.1.2.d.e.^ f.",
"- g.8.(.h.i.2.%.j.d.k.4.l.m.n.o.",
"_.p.q.r.P s.t.*.u.e.4.v.w.x.y.z.",
"      N A.( e.B.C.l.D.E.F.G.H.I."};
