/* XPM */
static char * FRAME_ICON64x64_xpm[] = {
"64 64 438 2",
"  	c None",
". 	c #9CD98C",
"+ 	c #95D685",
"@ 	c #86D174",
"# 	c #80CE6C",
"$ 	c #89D277",
"% 	c #B2E2A7",
"& 	c #D1EDCA",
"* 	c #D8F0D2",
"= 	c #DDF2D8",
"- 	c #E1F4DD",
"; 	c #E4F5E0",
"> 	c #E6F6E3",
", 	c #E5F5E1",
"' 	c #DEF2D9",
") 	c #E6F5E2",
"! 	c #DEF2D8",
"~ 	c #DCF1D6",
"{ 	c #DAF1D4",
"] 	c #C1E7B8",
"^ 	c #A9DE9C",
"/ 	c #A4DC96",
"( 	c #A3DC95",
"_ 	c #A2DB94",
": 	c #BEE6B4",
"< 	c #93D683",
"[ 	c #ABDF9E",
"} 	c #ADDFA0",
"| 	c #AEE0A2",
"1 	c #A7DD9A",
"2 	c #A7DD99",
"3 	c #97D787",
"4 	c #82CF6F",
"5 	c #7FCE6B",
"6 	c #7CCD68",
"7 	c #7ECD6A",
"8 	c #82CF6E",
"9 	c #9FDA90",
"0 	c #C8EAC0",
"a 	c #E3F4DE",
"b 	c #E8F6E4",
"c 	c #D3EECC",
"d 	c #C2E7B8",
"e 	c #CBEBC3",
"f 	c #DCF2D7",
"g 	c #E1F3DC",
"h 	c #DFF3DB",
"i 	c #DBF1D6",
"j 	c #D9F0D3",
"k 	c #D5EFCE",
"l 	c #B0E1A4",
"m 	c #9CD98D",
"n 	c #9AD88A",
"o 	c #A0DA91",
"p 	c #A8DE9B",
"q 	c #AEE0A1",
"r 	c #AFE0A3",
"s 	c #B3E2A8",
"t 	c #BBE5B1",
"u 	c #C5E9BC",
"v 	c #C0E7B7",
"w 	c #BCE5B2",
"x 	c #B5E3AA",
"y 	c #91D580",
"z 	c #9BD98C",
"A 	c #AADE9D",
"B 	c #86D073",
"C 	c #A9DE9B",
"D 	c #A6DD99",
"E 	c #99D889",
"F 	c #98D889",
"G 	c #90D47F",
"H 	c #9EDA90",
"I 	c #DFF3DA",
"J 	c #E5F5E2",
"K 	c #E7F6E3",
"L 	c #E2F4DE",
"M 	c #CCEBC4",
"N 	c #DBF1D5",
"O 	c #D9F1D4",
"P 	c #D7F0D1",
"Q 	c #C3E8B9",
"R 	c #ACDF9F",
"S 	c #A8DD9A",
"T 	c #C0E7B6",
"U 	c #BCE5B1",
"V 	c #B4E2A8",
"W 	c #A6DD98",
"X 	c #449231",
"Y 	c #3A7C29",
"Z 	c #A5DC97",
"` 	c #A4DC95",
" .	c #A1DB93",
"..	c #B7E3AC",
"+.	c #C4E8BB",
"@.	c #B3E2A7",
"#.	c #BAE4AF",
"$.	c #D6EFCF",
"%.	c #C1E7B7",
"&.	c #B1E1A4",
"*.	c #AFE0A2",
"=.	c #B2E1A6",
"-.	c #B1E1A5",
";.	c #9EDA8F",
">.	c #5ABF40",
",.	c #2E6321",
"'.	c #2C5F20",
").	c #3B7E2A",
"!.	c #B8E4AD",
"~.	c #BFE6B5",
"{.	c #C9EAC1",
"].	c #D0EDC8",
"^.	c #CFEDC8",
"/.	c #DDF2D7",
"(.	c #E3F4DF",
"_.	c #D2EECB",
":.	c #D6EFD0",
"<.	c #D4EFCE",
"[.	c #CBEBC4",
"}.	c #CAEBC2",
"|.	c #C7E9BE",
"1.	c #C3E8BA",
"2.	c #98D788",
"3.	c #449130",
"4.	c #2D6020",
"5.	c #2C5E1F",
"6.	c #2D6120",
"7.	c #D5EFCF",
"8.	c #E0F3DC",
"9.	c #CEECC6",
"0.	c #CCECC5",
"a.	c #C9EAC0",
"b.	c #BAE5B0",
"c.	c #B5E2A9",
"d.	c #377527",
"e.	c #2E6221",
"f.	c #ACDFA0",
"g.	c #61C248",
"h.	c #D2EECC",
"i.	c #D3EECD",
"j.	c #CDECC6",
"k.	c #C8EABF",
"l.	c #C6E9BD",
"m.	c #BDE6B3",
"n.	c #B9E4AF",
"o.	c #B4E2A9",
"p.	c #71C85B",
"q.	c #306722",
"r.	c #2F6421",
"s.	c #2F6522",
"t.	c #85D073",
"u.	c #5FC146",
"v.	c #7FCE6C",
"w.	c #85D072",
"x.	c #88D176",
"y.	c #8CD37A",
"z.	c #8CD37B",
"A.	c #84D071",
"B.	c #E0F3DB",
"C.	c #D0EDC9",
"D.	c #C2E8B9",
"E.	c #B9E4AE",
"F.	c #5AC041",
"G.	c #397928",
"H.	c #96D786",
"I.	c #71C95C",
"J.	c #70C85A",
"K.	c #8FD47E",
"L.	c #80CE6D",
"M.	c #7DCD69",
"N.	c #7BCC66",
"O.	c #7ACC65",
"P.	c #78CB63",
"Q.	c #E7F6E4",
"R.	c #CFECC7",
"S.	c #D1EDC9",
"T.	c #CDECC5",
"U.	c #BEE6B5",
"V.	c #4FA838",
"W.	c #2C5D1F",
"X.	c #2A5B1E",
"Y.	c #2A5A1E",
"Z.	c #377627",
"`.	c #74CA5F",
" +	c #83CF70",
".+	c #7ECE6B",
"++	c #8AD278",
"@+	c #8ED37C",
"#+	c #8FD47D",
"$+	c #8DD37B",
"%+	c #73C95E",
"&+	c #E9F7E6",
"*+	c #DAF1D5",
"=+	c #469532",
"-+	c #2B5C1F",
";+	c #2A591E",
">+	c #29571D",
",+	c #28561D",
"'+	c #367326",
")+	c #8ED47D",
"!+	c #91D581",
"~+	c #9FDA91",
"{+	c #E5F5E0",
"]+	c #E2F4DD",
"^+	c #D4EECD",
"/+	c #BFE7B6",
"(+	c #3F872D",
"_+	c #29581D",
":+	c #27541C",
"<+	c #27531C",
"[+	c #347025",
"}+	c #9DD98E",
"|+	c #A0DB92",
"1+	c #B6E3AB",
"2+	c #C7EABF",
"3+	c #3C802B",
"4+	c #7BCC67",
"5+	c #26521B",
"6+	c #26511B",
"7+	c #336E25",
"8+	c #B0E0A3",
"9+	c #3A7D2A",
"0+	c #336D24",
"a+	c #99D88A",
"b+	c #BBE5B0",
"c+	c #B8E4AE",
"d+	c #367427",
"e+	c #3F882D",
"f+	c #25501B",
"g+	c #326C24",
"h+	c #94D684",
"i+	c #3F862D",
"j+	c #326B24",
"k+	c #92D582",
"l+	c #96D685",
"m+	c #489A33",
"n+	c #B7E3AB",
"o+	c #479933",
"p+	c #254F1A",
"q+	c #316A23",
"r+	c #94D683",
"s+	c #D7EFD0",
"t+	c #E4F4DF",
"u+	c #BDE5B2",
"v+	c #54B53C",
"w+	c #367527",
"x+	c #B6E3AA",
"y+	c #4A9F35",
"z+	c #254E1A",
"A+	c #316823",
"B+	c #92D581",
"C+	c #6DC757",
"D+	c #4EA838",
"E+	c #244D1A",
"F+	c #D8F0D1",
"G+	c #CEECC7",
"H+	c #C6E9BE",
"I+	c #8BD279",
"J+	c #53B13B",
"K+	c #244C19",
"L+	c #306622",
"M+	c #55B63D",
"N+	c #4EA738",
"O+	c #2B5B1E",
"P+	c #81CE6D",
"Q+	c #234B19",
"R+	c #74C95E",
"S+	c #58BC3F",
"T+	c #AADE9C",
"U+	c #54B33C",
"V+	c #234A19",
"W+	c #87D175",
"X+	c #4A9E35",
"Y+	c #408A2E",
"Z+	c #A5DD98",
"`+	c #224918",
" @	c #77CB63",
".@	c #2B5D1F",
"+@	c #8DD37C",
"@@	c #52B03B",
"#@	c #81CF6E",
"$@	c #77CB62",
"%@	c #72C95C",
"&@	c #75CA60",
"*@	c #69C551",
"=@	c #A1DB92",
"-@	c #357126",
";@	c #68C550",
">@	c #51AE3A",
",@	c #214818",
"'@	c #83CF6F",
")@	c #88D175",
"!@	c #72C95D",
"~@	c #6EC757",
"{@	c #56B83D",
"]@	c #439130",
"^@	c #51AD3A",
"/@	c #50AB39",
"(@	c #224818",
"_@	c #214718",
":@	c #76CA61",
"<@	c #499C34",
"[@	c #29591E",
"}@	c #59BF40",
"|@	c #4FA938",
"1@	c #204517",
"2@	c #E8F6E5",
"3@	c #ADE0A1",
"4@	c #2D5F20",
"5@	c #387828",
"6@	c #9AD88B",
"7@	c #9BD88B",
"8@	c #90D47E",
"9@	c #9DD98D",
"0@	c #40892E",
"a@	c #28551C",
"b@	c #75CA5F",
"c@	c #4DA537",
"d@	c #204417",
"e@	c #79CB64",
"f@	c #469732",
"g@	c #4DA437",
"h@	c #7ACC66",
"i@	c #CAEAC1",
"j@	c #418B2E",
"k@	c #97D788",
"l@	c #93D582",
"m@	c #4CA236",
"n@	c #1F4316",
"o@	c #4BA136",
"p@	c #95D684",
"q@	c #4BA035",
"r@	c #459532",
"s@	c #97D786",
"t@	c #8AD279",
"u@	c #1F4216",
"v@	c #73C95D",
"w@	c #28571D",
"x@	c #4CA437",
"y@	c #1E4116",
"z@	c #489B34",
"A@	c #489933",
"B@	c #479833",
"C@	c #499D34",
"D@	c #439030",
"E@	c #244E1A",
"F@	c #234C19",
"G@	c #1E4015",
"H@	c #6FC859",
"I@	c #A3DB94",
"J@	c #64C44D",
"K@	c #224A19",
"L@	c #214617",
"M@	c #1D3F15",
"N@	c #6DC756",
"O@	c #6EC758",
"P@	c #3D822B",
"Q@	c #204617",
"R@	c #6BC654",
"S@	c #1D3E15",
"T@	c #6AC653",
"U@	c #6BC655",
"V@	c #57BA3E",
"W@	c #397B29",
"X@	c #459431",
"Y@	c #469632",
"Z@	c #50AC39",
"`@	c #68C551",
" #	c #69C552",
".#	c #84D072",
"+#	c #7CCC67",
"@#	c #1C3D14",
"##	c #66C44F",
"$#	c #397A29",
"%#	c #438F30",
"&#	c #67C44F",
"*#	c #58BD3F",
"=#	c #26501B",
"-#	c #428D2F",
";#	c #1C3C14",
">#	c #63C34B",
",#	c #65C44D",
"'#	c #3D842C",
")#	c #6FC758",
"!#	c #418C2F",
"~#	c #1B3A13",
"{#	c #62C249",
"]#	c #64C34C",
"^#	c #5FC247",
"/#	c #6CC756",
"(#	c #1B3913",
"_#	c #5EC146",
":#	c #60C247",
"<#	c #61C249",
"[#	c #54B43C",
"}#	c #3E862D",
"|#	c #5DC144",
"1#	c #3E852C",
"2#	c #1A3813",
"3#	c #5BC042",
"4#	c #78CB64",
"5#	c #5CC043",
"6#	c #3C812B",
"7#	c #1A3712",
"8#	c #7DCD68",
"9#	c #193612",
"0#	c #58BE3F",
"a#	c #57BB3E",
"b#	c #59BE3F",
"c#	c #4DA637",
"d#	c #6AC654",
"e#	c #65C44E",
"f#	c #193512",
"g#	c #56B93E",
"h#	c #67C550",
"i#	c #183411",
"j#	c #57B93E",
"k#	c #A2DB93",
"l#	c #6CC655",
"m#	c #66C44E",
"n#	c #387728",
"o#	c #183211",
"p#	c #5EC145",
"q#	c #1F4116",
"r#	c #55B73D",
"s#	c #56B73D",
"t#	c #173110",
"u#	c #62C34A",
"v#	c #76CA60",
"w#	c #5BC041",
"x#	c #357226",
"y#	c #53B23B",
"z#	c #183311",
"A#	c #79CC65",
"B#	c #60C248",
"C#	c #4EA637",
"D#	c #4BA236",
"E#	c #52AF3A",
"                              . + @ # # $ % & * = - ; > , ' ; ) ;     ! ~ { * ] ^ / ( _ /           ] :     + < [ } | } 1 2 / ( ",
"                          [ 3 4 5 6 6 7 8 9 0 * ' a ) b c d e f g h ! = i j k l m n n o p q r s t u v w x 9 y z ^ ^ [ A ( B C _ ",
"                          D _ 3 E F F E G H 0 * I a J K L M u c h I ~ = N O P Q q A ^ p [ R [ C S l T U V ( n E W p 1 @ X Y R W ",
"                          Z W o 9 ` p ^  .m ..P g , K b = +.@.#.j = f N j * $.%.&.*.q | =.s @.-.r =.: #.V W ;./ [  .>.,.'.).&.p ",
"                            p !.~.{.].].u -.!.^./.K b ) (.P ..r _.j { j * :.<.& [.}.|.1.] : t ..s =.w t ..=.| l 2.3.4.5.6.).=.A ",
"                              M & 7.* j 7.] : %.k ; K ; 8.i u l _.P P P :.<.c & ].9.0.e a.|.u Q ~.#.b.U ..c.@.B d.,.,.,.e.).r f.",
"  g.                          }.h.P i = I ' $.u d O - (.' N M ..<.* P :.<.i.& ^.j.M }.k.l.+.1.%.~.m.m.n.!.o.p.q.r.s.e.5.4.Y q @.",
"Z t.u.          v.w.t.x.y.z.A.    * ' g ; , , = |.k.{ B.f { C.T k P :.<._.C.].j.e }.k.u +.D.v : m.t E.!.-.F.r.r.,.,.,.e.4.G.R =.",
"1 H.I.J.y K.w.L.M.N.O.7 7 7 7 P.p.  h ; K b Q.) j 0 9.= i * $.R.:.:.<._.S.R.T.e a.|.u 1.D.v U.w t E...A V.r.r.,.4.W.X.X.Y.Z.Z r ",
"A W w.`. +$ L.O..+A.++@+#+#+$+L.%+N.M ) &+&+> , (.j ^.*+*+P :.7.7.<.h.S.9.M }.k.|.u 1.] v : w t #...Z =+r.,.6.'.-+;+>+,+,+'+;.o ",
"R q ;.y.)+G y.$ $+!+3 ;. . .~++ x.A.z./.&+b {+(.]+B.' f *+P :.7.^+_.].9.M }.k.l.u 1.] /+: w b.#...~+(+r.,.6.W.X._+>+:+:+<+[+z }+",
"l -.% _ o _ |+z ;.W } 1+w w ..-.~+)+x.S ) , a g B.' = i * :.7.i._.].9.M }.k.2+u 1.] /+: w b.n...z 3+r.,.4.5.Y.,.4+s.<+5+6+7+E z ",
"V 1+m.m.s &.8+*.=.t e :.N ' ' P %.( !+}+{ ]+g B.' = i j P 7.i._.].9.M }.k.l.u 1.] /+: w b.E.... 9+r.,.4.-+;+0+F : 3+5+5+6+0+H.a+",
"1+#.] |.a.k.|.0 T.<.j ~ ' g a J - d |+o c B.I ' = i j P 7.i.& R.T.M }.k.l.u 1.] /+~.w b+c+..~+9+r.,.4.5.;+d+;.w w e+5+6+f+g+h+3 ",
"#.U 1.{.M R.& ^+$.j N ' g (.J b b ' b.f._.B.' f i j P 7.h.& R.9.e }.0 l.u 1.] /+m.w b+c+..Z i+r.,.4.W.;+'+H b.n.n.3.6+f+f+j+k+l+",
"t : u e 9.C.& c 7.* ~ B.a J b b K , k : & ' = i j P 7.i.C.R.T.e }.0 l.u 1.] /+m.w b+E...} m+,.,.4.5.;+'+9 ..!.!.n+o+f+f+p+q+!+r+",
"m.~.2+M R.C.^.& c s+i B.t+K b K ) a g j f = i j P 7.c C.R.T.e }.0 l.u 1.] T : u+b+E...=.v+r.,.4.-+;+w+. x+x o.o.o.y+f+p+z+A+K.B+",
": 1.}.R._.c _.h.c & 7.B., K K , (.g I ' f i j P 7.i.& R.T.e }.0 l.+.1.] T m.u+b+E...c.C+r.,.4.5.;+7+E V @.@.@.=.=.D+p+z+E+q.@+G ",
"  0 9._.k F+j { $.M G+{ , ) , (.B.I = i i j P 7.h.& R.9.M }.0 H++.D.] T m.U b.E...c.I+q.,.4.W.X.A+h+=.-.-.l 8+8+*.J+z+E+K+L+y.@+",
"  j.C.<.P *+' I { T @.0.g ; a g I = i { j P 7.i.& R.T.M }.2+H++.1.] T m.U b+E...c./ Y ,.e.'.X.r.++8+*.*.*.q q q } M+E+K+K+L+++y.",
"      :.j f I ]+-   W V * ]+g I = i { j P 7.^+_.R.T.e }.2+H++.D.] T : U b+E...c.-.N+,.6.'.O+Y.P+q } R [ [ [ [ A A M+K+K+Q+s.x.++",
"              ,       [ 2+B.I = f { j P :.i._.].T.e }.0 H++.D.] T : U b+E...c.@.R+,.6.'.-+;+p.R [ [ A A ^ ^ ^ ^ p v+K+Q+Q+r.@ x.",
"                  L :.~.Q = = f { * P 7.c & ].9.M }.0 l.+.D.v T m.U b+E...c.@.z 0+6.'.-+_+S+^ ^ ^ p p 1 1 C [ T+2 U+Q+V+V+,.A.W+",
"                  (.f G+|.i i *+* P 7.<.& ].9.M {.0 l.+.D.] T m.U b+E...c.@.| X+e.'.-+_+Y+ .2 W W Z Z Z+W 1 ^ p / J+Q+V+`+e. +t.",
"  M.            (.a B.*+* i { * :.7.<._.].9.M }.0 l.+.D.v T m.U b+E...c.@.-. @e.4..@;+.@+@Z Z / ( ( _ / 2 1 S D _ @@V+`+`+6.#@ +",
"$@%@&@*@          B.' = i { j P 7.c _.S.9.M }.0 l.+.1.] T m.U b+E...c.@.-.=@-@6.5.X.>+;@/ ( _ _ _  ._ ( Z+2 W / o >@`+`+,@4.v.'@",
")@O.&@!@~@    I+~+j.& 7.* * P 7.c & C.G+M }.0 l.+.D.v T m.U b+E...c.@.-.r {@6.5.O+_+]@;.=@o o 9 ~+o ( ` / / /  .}+^@`+,@,@'.7 P+",
"v B !@!@&@B x.W+W+2 ] k.}.M & ^+_.C.G+T.}.k.l.+.1.v T : U b+E...c.@.-.r #+e.5..@_+'.x.o 9 ;.;.}+9 o _ ( _ _ _ o z /@(@,@_@W.6 v.",
"f | 7 :@&@6 t.$+@+K.n 2 ..%.}.T.].G+T.}.k.l.+.D.] T : U b+E...c.@.-.r [ <@'.O+[@,+}@;.}+}+m z }+o =@=@ . .o o }+F |@(@_@1@W.4+7 ",
"2@C.~+P+7 A.y.K.K.#+H.9 2 R m.2+T.T.}.k.|.+.D.] T m.U b+E...c.@.-.r 3@#@4@.@[@,+5@l+z z 6@6@7@}+9 |+9 9 ;.}+}+7@H.D+_@_@1@-+N.M.",
"&+, Q }+I+I+8@2.9@Z R -.@.o.w /+u }.k.l.+.1.v T m.U b+E...c.@.-.r 3@1 0@.@O+,+a@b@6@a+E 2.n m ;.;.;.}+}+m m z E < c@1@1@d@X.e@6 ",
"2@; ~ w A 2 S [ r !.k.C.].R.9.}.0 |.l.+.1.] T : U b+E...c.@.-.r 3@[ e@5.-+[@a@f@3 2.3 3 H.F . }+}+m z 7@7@n a+H.!+g@1@d@d@Y.P.h@",
"> (.= :.] b+#.#.~.9.^+_.C.R.T.i@|.u +.1.] /+m.u+b+E...c.@.-.r 3@[ W j@.@Y.,+,+7 H.+ + + H.3 n z 7@n E F k@k@H.l@)+m@d@d@n@[@:@P.",
"; g ' N *+s+k ^+<.^+_.C.R.9.M a.u 1.D.] /+m.w b+E...c.@.-.r 3@[ ^ 6 W.-+_+a@o@h+h+< < r+h+H.2.E E 2.2.3 l+p@r+y $+q@d@n@n@_+b@$@",
"  g ' i { j P :.<._.& ^.j.M i@k.+.] ] /+m.w b+E...c.@.-.r 3@[ ^ Z r@-+;+a@a@5 k+y y G B+l+3 k@s@3 l+p@p@r+l@!+K.t@y+n@n@u@_+v@&@",
"  h /.*+j P :.<.c & ^.j.M i@a.l.1.v /+m.w b+E...c.@.-.r 3@[ ^ 1 W+-+Y.w@<+x@y G G K.G !++ l+l+p@r+r+l@l@B+y #+y.)@<@n@u@y@w@%@`.",
"    N j P $.<.c & ^.j.M i@a.|.u ] ~.m.w b+E...c.@.-.r | [ ^ 1 Z |@X.w@:+6+i+z@A@B@m+m+<@X+y+y+X+X+C@<@<@<@m+B@r@D@r.u@y@y@a@J.%@",
"    { P 7.i._.C.G+T.e i@k.|.u 1.T m.w b+c+..c.@.-.r 3@R ^ 1 Z+l@e._+a@6+f+f+p+z+E+E@E@f+f+6+p+p+z+z+E+E+F@F@Q+(@1@u@u@y@G@:+H@p.",
"      :.c & ].9.M }.a.k.l.u +.%.: w b.E.n+c.@.-.r 3@[ ^ 1 Z+I@J@;+w@5+6+f+z+E+E+K+K+E+E+E+F@F@Q+K@K@`+`+,@_@L@1@n@y@y@G@M@<+N@O@",
"        _.^.0.}.a.|.H+u +.1.D.T m.b.!.n+c.@.-.l 3@[ ^ 1 Z+/ }+P@>+:+6+f+z+z+E+K+K+Q+Q+Q+V+`+`+,@_@_@Q@Q@d@d@n@u@y@y@G@G@M@5+R@C+",
"          R.0.i@|.u 1.D.d ] T : t !.n+c.@.-.r | R ^ 1 Z+( |+ +Y.a@5+f+z+E+E+K+K+Q+Q+V+V+`+(@,@_@_@1@d@d@n@n@u@y@y@G@M@M@S@6+T@U@",
"              2+u 1.%.v T ~.: w n...x+s -.r | [ ^ p Z+/  .9 V@_+:+6+p+W@D@X@X@X@Y@f@f@o+o+m+<@<@X+q@m@g@N+/@Z@Z@Z@'+M@S@S@6+`@ #",
"              D.1.] v T ~.: m.t ..x+s =.l 3@R ^ 1 Z+/  .o 6@d+>+<+f+p+$@t..# +4 #@L.# 5 5 7 +#+#N.O.O.P.P.$@:@&@`.D@S@S@@#f+##`@",
"            d %.T T T v : w t n.1+s =.l 3@R ^ p Z+/  .o ;.# [@,+5+p+$# + +4 #@P+v..+7 7 M.6 N.O.e@P.$@:@&@&@`.v@%@%#S@@#@#p+J@&#",
"              T w E.E.w m.t b.!.c.=.l q R A p Z+/  .o ;.m *#_+a@=#E+>@4 #@L.v.v.5 7 M.6 4+h@e@P.$@:@:@&@`.%+!@I.J.-#@#@#;#E@>#,#",
"2.4         1+1+% V !.m.w b.!.1+@.8+r R A p D /  .o }+. n '#,+:+p+K+##L.v..+5 5 # 5 7 M.M.6 4+O.e@P.$@:@&@`.%+%@)#!#@#;#~#E+{#]#",
"!+5         W ( 2 p A l t !...o.=.*.R A p D / _ |+9 . 7@t@-+a@5+E@,+P.7 M.7 7 #  + +'@8 P+# 5 7 M.M.+#O.e@P.$@`.O@Y+;#~#~#E+^#{#",
"< 8       S ( ;.9 2 =.!.c+1+x @.8+} [ p D / _ |+9 m z E O@a@5+p+E+5@M.M.6 M.5 4 A.t.w.A. +#@P+# 5 M.+#4+O.e@P.`./#e+~#~#(#F@_#:#",
"3 8 <#  h+ .(  .^ x+....1+x s -.*.R ^ 1 / _ |+9 m 7@E 3 [#a@=#E+Q+z@6 4+h@4+7 #@ +A. +#@P+# 5 7 M.+#4+e@P.$@:@%@T@}#~#(#(#V+|#u.",
"Z x.`.O.@+9 Z ^ V 1+1+1+o.s =.r } A 1 Z ( |+9 m . n 2.p@0@:+z+Q+Q+[#h@e@P.h@5 8 4 8 P+# 5 7 M.+#4+O.e@P.:@&@`.J.`@1#(#(#2#`+3#|#",
"l 2.++$ < |+3@% !...1+x s =.l q R ^ D (  .o }+. n 2.H.+@e.<+E@Q+V+:#P.$@:@4#7 #@L.P+# 5 7 M.6 O.e@P.$@&@`.%+%@C+##P@(#2#2#(@>.5#",
"b.A ;.7@}+Z+-.E.....x s @.-.q } [ p /  .~+}+. 7@2.H.p@7 ,+<+E+V+E+N@:@&@`.$@M.L.# 5 7 M.6 4+O.e@$@:@&@%+!@p.J.U@]#6#2#2#7#(@}@F.",
"m.b+8+[ } =.n.c+1+x s @.l | } [ ^ 2 ( |+;.m 7@E 3 + l@T@:+5+E+`+X.b@&@`.%+:@8#v..+7 M.6 O.e@P.$@:@R+%+!@J.H@C+ #<#3+7#7#9#_@0#}@",
"m.m.m.w w t n...x+s @.-.| q R T+S Z  .9 m 7@E 2.H.r+B+*#:+5+F@`+5@R+v@%@p.`.+#7 M.6 4+O.e@$@:@&@`.%@p.J.O@C+/#;@^#).7#9#9#L@a#b#",
"t t w t b.!...x s @.l | } R A ^ 2 /  .}+z n 2.H.r+B+y c#<+6+F@(@3.%@p.J.H@%+h@M.4+N.O.P.$@:@`.%+!@p.H@C+/#U@d#e#|#9+9#9#f#1@V@a#",
"E.n.#.b.!...x o.@.l q [ A ^ S 2 W ( |+}+7@E 3 p@l@y K.%#<+p+Q+(@x@p.H@O@O@I.e@+#N.e@P.$@&@`.%+p.J.H@C+/#d# #`@>#F.$#9#f#f#1@g#a#",
"........1+x o.@.-.q A p 1 Z Z Z / _ o m n 3 p@l@y G +@'+5+p+Q+_@J+H@O@C+/#H@$@O.e@P.$@:@`.%@p.J.O@C+U@d#`@h###<#b#G.f#f#i#d@{@j#",
"x V V x o.s =.r R p ( =@k#/ /  ._  .9 m F l+r+B+G )+I+_+5+f+K@_@*#N@l#R@T@O@:@e@P.$@&@`.!@p.J.O@C+U@T@`@h#m#J@^#S+n#f#i#o#n@M+{@",
"  =.l l % l | D Z ( 9 ;.~+;.;.o ~+9 9 m k@p@l@y K.+@5 5+6+E@K@1@p#l#R@T@ #/#b@P.:@&@R+%@p.H@O@/#U@ #`@##e#J@>#p#V@Z.i#o#o#q#v+r#",
"  8+q } | 3@f.S m 7@h+< + 3 ;.;.;.}+}+z k@p@B+K.+@z.!@6+6+E@`+d@<#T@ #`@h#U@R+$@&@R+%@p.H@O@/#R@ #`@##e#]#>#g.3#s#w+o#o#t#q#U+v+",
"    } [ A p *.7@2.E K.)+8@y.++}+9 z m z F p@y )+z.++u#6+f+E+_@d@u# #&#m###T@!@v#R+v@p.J.O@l#T@ #`@##J@>#<#g.:#w#v+x#o#t#t#G@y#J+",
"        D Z           }+7@k+P+$  .;.6@6@9@7@B+)+I+$ v+f+f+E+`+L@##N@l#T@ #/#%@b@v@p.J.O@N@R@ #`@##,#>#<#g.^#p#>.r#d+i#z#z#u@@@^@",
"                            W+A#< ( 7@6@( |+m + K.z.B#C#c@D#y+<@%+:@&@`.!@v@%+R+I.J.O@N@R@ #`@##]#u#<#^#_#|#5#}@a#=+$#G.5@W@E#V.",
"                              !@# Z . h+2 =.2 F l+p@l@B+y G K.W+N.e@P.:@&@%+%@J.O@l#T@ #;@e#]#<#:#u.|#3#F.b#*#S+j#{@r#[#y#^@V.q@"};
