/* XPM */
static char * FRAME_ICON16x16_xpm[] = {
"16 16 28 1",
" 	c None",
".	c #FFFFFF",
"+	c #EFEFEF",
"@	c #DFDFDF",
"#	c #CFCFCF",
"$	c #8F8F8F",
"%	c #4F4F4F",
"&	c #1F1F1F",
"*	c #9F9F9F",
"=	c #2F2F2F",
"-	c #0F0E03",
";	c #4C4912",
">	c #7A761D",
",	c #AFAFAF",
"'	c #1E1D07",
")	c #989424",
"!	c #E4DE36",
"~	c #F4ED3A",
"{	c #2D2C0A",
"]	c #B7B12B",
"^	c #7A761C",
"/	c #C6C02F",
"(	c #817575",
"_	c #3F3F3F",
":	c #6A6719",
"<	c #797171",
"[	c #312525",
"}	c #292121",
"................",
"................",
"......+@@+......",
"....#$%&&%$#....",
"...*=-;>>;-=*...",
"..,&')!~~!){&,..",
".+%')~~~~~~]{%+.",
".#&^~~~~~~~~^&#.",
".$'/~~~~~~~~/'$.",
"(_-:>>>>>>>>:-_<",
"[&&&&&&&&&&&&&&}",
".@@@@@@@@@@@@@@.",
"................",
"................",
"................",
"................"};
