/* XPM */
static char * FRAME_ICON32x32_xpm[] = {
"32 32 328 2",
"  	c None",
". 	c #93D683",
"+ 	c #87D175",
"@ 	c #7FCE6B",
"# 	c #D1EDCA",
"$ 	c #DFF3DB",
"% 	c #E6F5E2",
"& 	c #D8F0D2",
"* 	c #DDF2D7",
"= 	c #E2F4DD",
"- 	c #DEF2D9",
"; 	c #DBF1D5",
"> 	c #CDECC5",
", 	c #A2DB94",
"' 	c #9FDA90",
") 	c #A7DD99",
"! 	c #ADDFA0",
"~ 	c #BAE5B0",
"{ 	c #C0E7B7",
"] 	c #A9DE9C",
"^ 	c #94D684",
"/ 	c #AADE9D",
"( 	c #ACDF9F",
"_ 	c #9BD88B",
": 	c #A5DC97",
"< 	c #A1DB92",
"[ 	c #9EDA8F",
"} 	c #A4DC95",
"| 	c #9CD98C",
"1 	c #C9EAC0",
"2 	c #E7F6E3",
"3 	c #D7EFD0",
"4 	c #BEE6B4",
"5 	c #DCF1D6",
"6 	c #DCF2D7",
"7 	c #DAF1D4",
"8 	c #CFEDC8",
"9 	c #B0E1A4",
"0 	c #AFE0A3",
"a 	c #ADE0A1",
"b 	c #BCE5B2",
"c 	c #AFE0A2",
"d 	c #A7DD9A",
"e 	c #6DC757",
"f 	c #326B24",
"g 	c #B8E4AE",
"h 	c #CDECC6",
"i 	c #D6EFD0",
"j 	c #C8EAC0",
"k 	c #C1E7B7",
"l 	c #DDF2D8",
"m 	c #DFF3DA",
"n 	c #B9E4AF",
"o 	c #D3EECC",
"p 	c #CEECC6",
"q 	c #C9EAC1",
"r 	c #C5E9BC",
"s 	c #B9E4AE",
"t 	c #BBE5B0",
"u 	c #B6E3AB",
"v 	c #4EA838",
"w 	c #2D6120",
"x 	c #2E6221",
"y 	c #92D582",
"z 	c #83CF70",
"A 	c #8AD278",
"B 	c #CFECC7",
"C 	c #E3F4DE",
"D 	c #C7E9BE",
"E 	c #D5EFCE",
"F 	c #D2EECB",
"G 	c #D0EDC8",
"H 	c #CCEBC4",
"I 	c #C8EABF",
"J 	c #C4E8BB",
"K 	c #C0E7B6",
"L 	c #BDE6B3",
"M 	c #A1DB93",
"N 	c #418B2E",
"O 	c #2F6421",
"P 	c #7BCC66",
"Q 	c #89D277",
"R 	c #80CE6D",
"S 	c #80CE6C",
"T 	c #85D072",
"U 	c #88D176",
"V 	c #76CA61",
"W 	c #E8F6E5",
"X 	c #E6F6E3",
"Y 	c #D4EFCE",
"Z 	c #D9F0D3",
"` 	c #D5EFCF",
" .	c #CAEBC2",
"..	c #C3E8BA",
"+.	c #96D786",
"@.	c #377728",
"#.	c #2C5D1F",
"$.	c #29581D",
"%.	c #A3DC95",
"&.	c #9AD88B",
"*.	c #97D787",
"=.	c #9AD88A",
"-.	c #A9DE9B",
";.	c #B4E2A8",
">.	c #ACDFA0",
",.	c #A0DB92",
"'.	c #E3F4DF",
").	c #E0F3DB",
"!.	c #C6E9BD",
"~.	c #BFE7B6",
"{.	c #BAE4AF",
"].	c #8ED47D",
"^.	c #316A23",
"/.	c #2D6020",
"(.	c #2A5B1E",
"_.	c #499C34",
":.	c #27531C",
"<.	c #B7E3AB",
"[.	c #C2E7B8",
"}.	c #E1F3DC",
"|.	c #9DD98E",
"1.	c #8DD37C",
"2.	c #306722",
"3.	c #2C5F20",
"4.	c #8CD37A",
"5.	c #26521B",
"6.	c #26511B",
"7.	c #C7EABF",
"8.	c #D7F0D1",
"9.	c #99D889",
"0.	c #326C24",
"a.	c #2C5E1F",
"b.	c #25501B",
"c.	c #93D582",
"d.	c #DBF1D6",
"e.	c #BDE5B2",
"f.	c #A6DD99",
"g.	c #3A7C29",
"h.	c #B3E2A7",
"i.	c #8ED37C",
"j.	c #254E1A",
"k.	c #254F1A",
"l.	c #8FD47E",
"m.	c #C6E9BE",
"n.	c #C2E8B9",
"o.	c #BCE5B1",
"p.	c #B2E1A6",
"q.	c #4BA236",
"r.	c #81CF6E",
"s.	c #B0E0A3",
"t.	c #90D47F",
"u.	c #244D1A",
"v.	c #8BD279",
"w.	c #D6EFCF",
"x.	c #B5E2A9",
"y.	c #2B5C1F",
"z.	c #75CA60",
"A.	c #ABDF9E",
"B.	c #8DD37B",
"C.	c #244C19",
"D.	c #234B19",
"E.	c #D0EDC9",
"F.	c #2E6321",
"G.	c #56B83D",
"H.	c #A8DE9B",
"I.	c #234A19",
"J.	c #73C95D",
"K.	c #DAF1D5",
"L.	c #AEE0A2",
"M.	c #469532",
"N.	c #3B7E2A",
"O.	c #A5DD98",
"P.	c #86D073",
"Q.	c #224918",
"R.	c #82CF6E",
"S.	c #73C95E",
"T.	c #79CB64",
"U.	c #D4EECD",
"V.	c #CEECC7",
"W.	c #B1E1A5",
"X.	c #78CB63",
"Y.	c #29591E",
"Z.	c #224818",
"`.	c #7ECD6A",
" +	c #7DCD69",
".+	c #367427",
"++	c #52B03B",
"@+	c #9CD98D",
"#+	c #9BD98C",
"$+	c #A0DA91",
"%+	c #214718",
"&+	c #214617",
"*+	c #7CCD68",
"=+	c #68C551",
"-+	c #8FD47D",
";+	c #98D788",
">+	c #9DD98D",
",+	c #99D88A",
"'+	c #204517",
")+	c #E4F4DF",
"!+	c #CBEBC3",
"~+	c #336D24",
"{+	c #5CC043",
"]+	c #97D788",
"^+	c #74CA5F",
"/+	c #204417",
"(+	c #6DC756",
"_+	c #2A591E",
":+	c #316923",
"<+	c #95D685",
"[+	c #96D685",
"}+	c #95D684",
"|+	c #94D683",
"1+	c #92D581",
"2+	c #70C85A",
"3+	c #1F4316",
"4+	c #1F4216",
"5+	c #BFE6B5",
"6+	c #3A7B29",
"7+	c #27541C",
"8+	c #29571D",
"9+	c #306622",
"0+	c #2F6522",
"a+	c #1E4116",
"b+	c #28571D",
"c+	c #234C19",
"d+	c #1E4015",
"e+	c #1D3F15",
"f+	c #CAEAC1",
"g+	c #C1E7B8",
"h+	c #428D2F",
"i+	c #428E2F",
"j+	c #408A2E",
"k+	c #40882D",
"l+	c #3F872D",
"m+	c #3E852C",
"n+	c #3E842C",
"o+	c #397928",
"p+	c #1D3E15",
"q+	c #6AC653",
"r+	c #BBE5B1",
"s+	c #B5E3AA",
"t+	c #52AF3A",
"u+	c #81CE6D",
"v+	c #7ECE6B",
"w+	c #5EC145",
"x+	c #1C3D14",
"y+	c #66C44E",
"z+	c #B8E4AD",
"A+	c #AEE0A1",
"B+	c #79CC65",
"C+	c #28561D",
"D+	c #6BC654",
"E+	c #7FCE6C",
"F+	c #7DCD6A",
"G+	c #7BCC67",
"H+	c #7ACC65",
"I+	c #77CB62",
"J+	c #75CA5F",
"K+	c #5AC041",
"L+	c #1C3C14",
"M+	c #63C34B",
"N+	c #A4DC96",
"O+	c #57BB3E",
"P+	c #84D071",
"Q+	c #58BD3F",
"R+	c #1B3A13",
"S+	c #1B3B14",
"T+	c #60C248",
"U+	c #72C95D",
"V+	c #B2E2A7",
"W+	c #B7E3AC",
"X+	c #244E1A",
"Y+	c #387928",
"Z+	c #7ACC66",
"`+	c #82CF6F",
" @	c #74C95E",
".@	c #56B93E",
"+@	c #1B3913",
"@@	c #5DC144",
"#@	c #9FDA91",
"$@	c #459431",
"%@	c #72C95C",
"&@	c #6FC859",
"*@	c #54B43C",
"=@	c #1A3813",
"-@	c #A8DD9A",
";@	c #4FAA39",
">@	c #71C85B",
",@	c #6EC758",
"'@	c #1A3712",
")@	c #193612",
"!@	c #70C859",
"~@	c #6BC655",
"{@	c #67C550",
"]@	c #50AB39",
"^@	c #193512",
"/@	c #57BA3E",
"(@	c #5FC247",
"_@	c #5BC041",
":@	c #6AC654",
"<@	c #4EA738",
"[@	c #183411",
"}@	c #56B73D",
"|@	c #9EDA90",
"1@	c #97D786",
"2@	c #91D580",
"3@	c #60C247",
"4@	c #69C552",
"5@	c #6CC756",
"6@	c #67C44F",
"7@	c #63C34C",
"8@	c #4CA336",
"9@	c #183211",
"0@	c #183311",
"a@	c #54B53C",
"b@	c #489B34",
"c@	c #65C44D",
"d@	c #6CC655",
"e@	c #66C44F",
"f@	c #61C248",
"g@	c #4BA136",
"h@	c #52B13B",
"i@	c #61C249",
"j@	c #5BC042",
"k@	c #59BE3F",
"l@	c #55B53C",
"m@	c #4FA838",
"              . + @ . # $ % & * = - ; > , ' ) ! ~ { ] ^ / ( _ : ",
"              < [ } | 1 = 2 3 4 5 6 7 8 9 ! 9 0 a b c [ d e f ( ",
"              g h i j k l 2 m n o & i o p q r { s t u d v w x c ",
"y         z A   B - C 6 q m 6 D E i F G H I J K L n M N O w w 9 ",
"d P Q R S T U z V 5 W X ; Y Z E ` F p  .D ..{ b n +.@.w #.$.$.%.",
"0 : &.*.=.-.;.>.. ,.% '.).l & ` F p  .!...~.b {.].^./.(._.:.:.&.",
"<.[.k 4 !.i - }. .|.& ).l Z ` # >  .!...~.b s 1.2./.3.].4.5.6.*.",
"b 7.p F 8.* C 2 % ..8.l Z ` # >  .!...~.b s 9.0./.a.1.g 4.b.b.c.",
"K  .# # o d.% 2 C - 6 Z ` # >  .!...K e.s f.g./.(.A ;.h.i.j.k.l.",
"  # 8.5 o 7.'.'.m d.Z ` # >  .m.n.K o.s p.q./.(.r.s.s.c t.u.u.v.",
"    d.}.  ] w.m 6 Z ` F >  .m.n.K o.s x.e /.y.z.( A./ / B.C.D.+ ",
"          E E.d.& ` # p  .!...K o.s x.*.F.y.G.H.) f.) ] A D.I.T ",
"z.J.    l - K.Z ` F p  .!...K o.s x.L.M.a.N.' %., %.f.O.P.Q.Q.R.",
"' S.T.Q , 1 # U.# V. .!.n.K o.s x.W.X.a.Y.z ' [ ' , %., R.Z.Z.`.",
"Z 4. +v.l.| 9 r >  .!.n.K o.s x.W.: .+Y.++@+#+@+$+$+' |.`.%+&+*+",
"2 !.|.M ( K r !.m.!...K o.s x.W.a =+y.O -+;+;+>+|.@+#+,+T.'+'+T.",
")+6 8  .V.F B !+r n.~.b s x.W.a M ~+$.{+^ ^ *.,+=.]+*.. ^+/+/+V ",
"  6 Z i F 8 H I n.~.b s x.W.a ] (+_+:+4.t.t.<+[+}+|+1+l.2+3+4+S.",
"  Z ` F 8 !+I r 5+b g x.W.L.] %.6+7+8+x w F.9+0+O F.x a.:.4+a+2+",
"    # h  .m.r n.b s x.W.a ] O.@ b+6.k.u.C.c+I.Q.Z.%+&+/+4+d+e+(+",
"      f+r g+K 4 s x.W.L./ O.M ++:.x h+i+h+N j+k+l+m+n+m+o+e+p+q+",
"      k g+K 4 r+s+p.L.] O.M =.w 6.t+z r.u+v+ +P T.X.V ^+w+p+x+y+",
"l.    s u s b z+h.A+/ f.M |.B+C+k.D+R S E+F+G+H+X.I+J+J.K+x+L+M+",
"B.    , N+W.s s+s.A.f., ' #+O+5.6.G+*+S P+z r.E+F+G+H+V Q+R+S+T+",
"9.U+*.: V+W+s+p.! d , ' | ;+h+X+Y+Z+B+S `+r.S `.G+T.I+ @.@+@R+@@",
"0 +.[ V+z+s+p.A+/ N+#@| ;+y Y.u.$@I+V @ S `.*+H+X.z.%@&@*@=@=@K+",
"e.u u s s+h.L.( -@M @+9.+.R :.I.;@J.J. +`.G+T.V ^+>@,@D+++'@)@Q+",
"s ~ z+s+p.A+A.-@: #@_ [+1+ @5.Q.O+2+!@H+P X.V S.2+e ~@{@]@)@^@/@",
"x.s+s+p.! : N+%., [ ;+|+t.(@6.Z._@e (+I+X.z.U+2+e :@{@M+<@^@[@}@",
"  c 0 / $+9.&.[ |@|.1@2@1.O+b.%+3@4@q+z.z.%@&@5@4@6@7@T+8@9@0@a@",
"    d     *.. A ' &.=.2@v.b@j.%+c@q+4@S.J.2+d@4@e@M+f@@@g@0@0@h@",
"              `.}+_ d [ y @ V >@I+V  @%@,@~@{@c@i@w+j@k@l@g@_.m@"};
