/* XPM */
static char * FRAME_ICON32x32_xpm[] = {
"32 32 149 2",
"  	c None",
". 	c #F0DC2E",
"+ 	c #ECD82E",
"@ 	c #EAD62E",
"# 	c #E9D52E",
"$ 	c #E7D32D",
"% 	c #E7D42D",
"& 	c #EBD82E",
"* 	c #EDDA2F",
"= 	c #F0DB2F",
"- 	c #EBD72E",
"; 	c #E5D12D",
"> 	c #E2CE2C",
", 	c #E2CF2C",
"' 	c #E1CE2D",
") 	c #E0CE2C",
"! 	c #E1CE2C",
"~ 	c #E1CF2C",
"{ 	c #E2CF2D",
"] 	c #E6D32D",
"^ 	c #DFCB2B",
"/ 	c #DECB2B",
"( 	c #DDCA2B",
"_ 	c #DBC82B",
": 	c #DAC82A",
"< 	c #DAC72A",
"[ 	c #DAC72B",
"} 	c #DAC82B",
"| 	c #DDCB2B",
"1 	c #E1CD2C",
"2 	c #D6C32A",
"3 	c #D4C12A",
"4 	c #D3C229",
"5 	c #D4C229",
"6 	c #D4C22A",
"7 	c #D4C129",
"8 	c #D3C129",
"9 	c #D8C62A",
"0 	c #D3C029",
"a 	c #CEBC29",
"b 	c #CDBB29",
"c 	c #CDBB28",
"d 	c #CDBC29",
"e 	c #CDBC28",
"f 	c #CDBB27",
"g 	c #CCBB28",
"h 	c #CFBE28",
"i 	c #CBB928",
"j 	c #C7B527",
"k 	c #C6B627",
"l 	c #C6B527",
"m 	c #C7B627",
"n 	c #C5B526",
"o 	c #C6B626",
"p 	c #C8B727",
"q 	c #C4B426",
"r 	c #C0AF26",
"s 	c #BFB025",
"t 	c #BFAF25",
"u 	c #C0AF25",
"v 	c #C0B025",
"w 	c #C0B026",
"x 	c #BFB026",
"y 	c #BFAF26",
"z 	c #C1B025",
"A 	c #C7B426",
"B 	c #BEAE25",
"C 	c #BBAB25",
"D 	c #B9A925",
"E 	c #B9AA25",
"F 	c #B9AA24",
"G 	c #B9A924",
"H 	c #BAA924",
"I 	c #BAA925",
"J 	c #BAAA23",
"K 	c #BAA923",
"L 	c #BBAB24",
"M 	c #BAAA24",
"N 	c #B5A624",
"O 	c #B2A323",
"P 	c #B3A323",
"Q 	c #B3A322",
"R 	c #B2A324",
"S 	c #B3A324",
"T 	c #B7A723",
"U 	c #AFA122",
"V 	c #AD9F22",
"W 	c #AC9D21",
"X 	c #AC9D22",
"Y 	c #AB9C22",
"Z 	c #AC9E22",
"` 	c #AC9E21",
" .	c #AC9D23",
"..	c #AD9E22",
"+.	c #AF9F22",
"@.	c #B1A022",
"#.	c #A69921",
"$.	c #A59720",
"%.	c #A69720",
"&.	c #A69721",
"*.	c #A59721",
"=.	c #A59821",
"-.	c #A69821",
";.	c #A69820",
">.	c #A59820",
",.	c #A89A21",
"'.	c #A5961F",
").	c #A19320",
"!.	c #9F9220",
"~.	c #9E911F",
"{.	c #9F911F",
"].	c #9F9120",
"^.	c #9E921F",
"/.	c #9F921F",
"(.	c #A1931F",
"_.	c #A4961F",
":.	c #9C901D",
"<.	c #998C1D",
"[.	c #988B1E",
"}.	c #988C1E",
"|.	c #988B1D",
"1.	c #988A1E",
"2.	c #998B1E",
"3.	c #998C1E",
"4.	c #978B1E",
"5.	c #9A8C1E",
"6.	c #9C8E1E",
"7.	c #94871C",
"8.	c #93861C",
"9.	c #92851D",
"0.	c #91851D",
"a.	c #91851C",
"b.	c #92851C",
"c.	c #92861D",
"d.	c #91861C",
"e.	c #91861D",
"f.	c #94871D",
"g.	c #8C7F1C",
"h.	c #8B7F1B",
"i.	c #8A7E1B",
"j.	c #8B7F1A",
"k.	c #8A7F1B",
"l.	c #8B7E1B",
"m.	c #8B7F1C",
"n.	c #867B1B",
"o.	c #867A1A",
"p.	c #867A1B",
"q.	c #857A1A",
"r.	c #877B1B",
"                                                                ",
"                                                                ",
"                                                                ",
"                                                                ",
"                                                                ",
"                                                                ",
"                                                                ",
"                      . + @ # $ % # & * =                       ",
"                - ; > , > > ' ) ! ! , , ~ { ]                   ",
"              ^ / ( _ : < [ } } } : [ [ : } | / 1               ",
"            : 2 3 4 5 6 7 7 5 5 4 6 6 6 6 4 8 6 9 <             ",
"          0 a b b c c d e c c f g c d d c e c c c h 7           ",
"        i j k l j m k k k l n o j j m l l m m j j m p g         ",
"      q r r s s t u u v u u u v w x y r u s t u r w z z A       ",
"    B C D E F G G H G G G G G H I D D D G G G G D G J K L t     ",
"  M N O P O Q P P O P O P O O R O P P P P P Q P S P P O O T     ",
"  U V W X Y X X Z X W Z ` ` Z X X X X X X X X X  .X W X ..+.@.  ",
"  #.$.%.&.*.=.=.*.%.$.-.;.;.&.&.-.&.*.*.*.&.*.&.=.>.%.-.;.-.,.  ",
"'.).!.~.{.{.].~.{.{.{.~.^./.{.~.~.~.~.~.~.~.{.~.~.{.{.~.{.~.(._.",
":.<.[.}.[.|.[.1.2.[.[.[.[.[.[.[.[.[.3.2.|.|.2.[.4.[.|.|.2.[.5.6.",
"7.8.9.0.9.a.b.0.9.9.0.0.9.9.9.c.0.a.0.0.a.d.e.9.9.e.d.a.9.9.c.f.",
"g.h.h.i.i.i.j.k.i.i.i.i.l.l.h.h.i.i.i.k.k.k.k.i.k.k.k.i.i.k.h.m.",
"n.o.o.p.q.q.o.o.q.q.q.q.p.p.p.p.q.p.o.o.o.o.o.q.q.o.o.q.q.q.o.r.",
"                                                                ",
"                                                                ",
"                                                                ",
"                                                                ",
"                                                                ",
"                                                                ",
"                                                                ",
"                                                                ",
"                                                                "};
