/* XPM */
static char * KAUPPILA_RATE_ICON_xpm[] = {
"20 20 2 1",
" 	c None",
".	c #000000",
"    ..              ",
"    ...             ",
"    ...             ",
"    ...             ",
"    ...             ",
"    ...             ",
"    ...     ....    ",
"    ...   ....      ",
"    ...  ....       ",
"    ... ....        ",
"    .......         ",
"    ......          ",
"    .....           ",
"    .......         ",
"    ... ....        ",
"    ...  ....       ",
"    ...   ....      ",
"    ...    ....     ",
"    ...     ....    ",
"    ..       ...    "};
