/* XPM */
static char * MEASURE_2D_ICON_xpm[] = {
"20 20 4 1",
" 	c None",
".	c #000000",
"+	c #686262",
"@	c #1C9EE7",
"            .       ",
"  .        . .      ",
"  ..        ..      ",
"  . .      . ..     ",
"  .+ .    .. ..     ",
"  .   .  ..   ..    ",
"  .  + ...    ..    ",
"  .    ..      .    ",
"  .   .+ .     .    ",
"  .  .    .   @  .  ",
"  .   @  + . @  . . ",
"  .    @@  @@  . + .",
"  .      @@+ .. + . ",
"  ............ + .  ",
"            . + .   ",
"           . + .    ",
"          . + .     ",
"         . + .      ",
"          . .       ",
"           .        "};
