/* XPM */
static char * OCCLUSION_MEASURE_ICON_xpm[] = {
"20 20 71 1",
" 	c None",
".	c #0A0A0A",
"+	c #000000",
"@	c #515151",
"#	c #040404",
"$	c #5E5E5E",
"%	c #FEFEFE",
"&	c #9B9B9B",
"*	c #020202",
"=	c #101010",
"-	c #6A6A6A",
";	c #FCFCFC",
">	c #FFFFFF",
",	c #878787",
"'	c #010101",
")	c #5A5A5A",
"!	c #E0E0E0",
"~	c #060606",
"{	c #A1A1A1",
"]	c #A2A2A2",
"^	c #030303",
"/	c #2F2F2F",
"(	c #B0B0B0",
"_	c #E9E9E9",
":	c #FBFBFB",
"<	c #464646",
"[	c #BCBCBC",
"}	c #9F9F9F",
"|	c #9C9C9C",
"1	c #555555",
"2	c #050505",
"3	c #5B5B5B",
"4	c #454545",
"5	c #131313",
"6	c #E5E5E5",
"7	c #A5A5A5",
"8	c #303030",
"9	c #F7F7F7",
"0	c #4F4F4F",
"a	c #222222",
"b	c #424242",
"c	c #909090",
"d	c #E7E7E7",
"e	c #626262",
"f	c #404040",
"g	c #F5F5F5",
"h	c #282828",
"i	c #818181",
"j	c #474747",
"k	c #3A3A3A",
"l	c #080808",
"m	c #7A7A7A",
"n	c #F9F9F9",
"o	c #606060",
"p	c #949494",
"q	c #CCCCCC",
"r	c #6F6F6F",
"s	c #525252",
"t	c #595959",
"u	c #787878",
"v	c #CBCBCB",
"w	c #D6D6D6",
"x	c #323232",
"y	c #F2F2F2",
"z	c #373737",
"A	c #1F1F1F",
"B	c #B1B1B1",
"C	c #565656",
"D	c #646464",
"E	c #888888",
"F	c #A3A3A3",
"              .     ",
"             +@+    ",
"            #$%&+   ",
"           *=-;>,+  ",
"          ')!~{>>]+ ",
"         ^/+(_:>>:<~",
"        ++[}+|%>>12 ",
"       #3456789;0+  ",
"      *ab9cd>>>e^   ",
"     *fghi>>>>j*    ",
"    *klmn>>>:o*     ",
"   ++pq+r:>>s^      ",
"  #tu2vwxy:s+       ",
" +zA6B6>>>o^   +++  ",
".@nCD>>>>j*   +     ",
" +|>>%>;e*        + ",
"  'E>>>0^         + ",
"   +F:1+      +   + ",
"    +j2       ++++  ",
"     2              "};
