/* XPM */
static char * RESET_LUT_ICON_xpm[] = {
"22 22 87 1",
" 	c None",
".	c #CCCCCC",
"+	c #000000",
"@	c #050505",
"#	c #1C1C1C",
"$	c #5F5F5F",
"%	c #C3C3C3",
"&	c #C7C7C7",
"*	c #A8A8A8",
"=	c #383838",
"-	c #515151",
";	c #B7B7B7",
">	c #121212",
",	c #090909",
"'	c #414141",
")	c #BABABA",
"!	c #C5C5C5",
"~	c #A1A1A1",
"{	c #242424",
"]	c #686868",
"^	c #B0B0B0",
"/	c #0F0F0F",
"(	c #C1C1C1",
"_	c #434343",
":	c #797979",
"<	c #949494",
"[	c #282828",
"}	c #09090A",
"|	c #181919",
"1	c #272727",
"2	c #363636",
"3	c #454445",
"4	c #535353",
"5	c #626161",
"6	c #707071",
"7	c #7F7F7F",
"8	c #8E8E8E",
"9	c #9C9C9C",
"0	c #ABABAB",
"a	c #C8C9C8",
"b	c #D6D7D7",
"c	c #E5E6E6",
"d	c #F5F5F4",
"e	c #090A09",
"f	c #191818",
"g	c #363536",
"h	c #444444",
"i	c #626261",
"j	c #707070",
"k	c #8E8D8E",
"l	c #9C9D9D",
"m	c #B9BABA",
"n	c #C9C8C9",
"o	c #D7D7D7",
"p	c #E6E5E6",
"q	c #F4F4F4",
"r	c #0A090A",
"s	c #181818",
"t	c #272627",
"u	c #535253",
"v	c #616161",
"w	c #7F7E7F",
"x	c #8D8D8E",
"y	c #9D9C9C",
"z	c #B9B9B9",
"A	c #C8C8C9",
"B	c #E5E6E5",
"C	c #0A0A09",
"D	c #181819",
"E	c #353635",
"F	c #444445",
"G	c #616261",
"H	c #707170",
"I	c #7E7F7F",
"J	c #8E8E8D",
"K	c #C8C8C8",
"L	c #E6E6E5",
"M	c #090A0A",
"N	c #272726",
"O	c #363635",
"P	c #525252",
"Q	c #7F7E7E",
"R	c #9C9D9C",
"S	c #AAAAAB",
"T	c #B9BAB9",
"U	c #E6E5E5",
"V	c #F5F4F4",
"                      ",
" .................... ",
" .................... ",
" ......+++@#$%....... ",
" ......+..&*=-....... ",
" ......+....;>....... ",
" ......+....;,....... ",
" ......+..&*='....... ",
" ......+++++>)....... ",
" ......+..!~{]....... ",
" ......+....^/(...... ",
" ......+....._:...... ",
" ......+.....<[...... ",
" .................... ",
" .................... ",
" .+}|1234567890)abcd. ",
" .+ef1gh4ij7kl0mnopq. ",
" .+rstg3uvjwxy0zAoBd. ",
" .+CDtEF4GHIJ90mKoLq. ",
" .+MsNOhP5jQ8RSTKoUV. ",
" .................... ",
"                      "};
