/* XPM */
static char * SET_LUT1_ICON_xpm[] = {
"22 22 59 1",
" 	c None",
".	c #CCCCCC",
"+	c #282828",
"@	c #949494",
"#	c #797979",
"$	c #444444",
"%	c #7A7A7A",
"&	c #C1C1C1",
"*	c #0F0F0F",
"=	c #BCBCBC",
"-	c #C2C2C2",
";	c #505050",
">	c #707070",
",	c #727272",
"'	c #515151",
")	c #A3A3A3",
"!	c #202020",
"~	c #232323",
"{	c #9C9C9C",
"]	c #A0A0A0",
"^	c #4C4C4C",
"/	c #121212",
"(	c #B7B7B7",
"_	c #141414",
":	c #2E2E2E",
"<	c #000000",
"[	c #FFFFFF",
"}	c #535353",
"|	c #626161",
"1	c #707071",
"2	c #7F7F7F",
"3	c #8E8E8E",
"4	c #ABABAB",
"5	c #BABABA",
"6	c #C8C9C8",
"7	c #D6D7D7",
"8	c #626261",
"9	c #8E8D8E",
"0	c #9C9D9D",
"a	c #B9BABA",
"b	c #C9C8C9",
"c	c #D7D7D7",
"d	c #535253",
"e	c #616161",
"f	c #7F7E7F",
"g	c #8D8D8E",
"h	c #9D9C9C",
"i	c #B9B9B9",
"j	c #C8C8C9",
"k	c #616261",
"l	c #707170",
"m	c #7E7F7F",
"n	c #8E8E8D",
"o	c #C8C8C8",
"p	c #525252",
"q	c #7F7E7E",
"r	c #9C9D9C",
"s	c #AAAAAB",
"t	c #B9BAB9",
"                      ",
" .................... ",
" .................... ",
" .....+@.....@+...... ",
" .....#$.....$%...... ",
" .....&*=...=*-...... ",
" ......;>...,'....... ",
" ......)!...~)....... ",
" .......+{.]+........ ",
" .......#^.;%........ ",
" .......&/(_-........ ",
" ........;:'......... ",
" ........)<)......... ",
" .................... ",
" .................... ",
" .[[[[[[}|123{4567[[. ",
" .[[[[[[}8>2904abc[[. ",
" .[[[[[[de>fgh4ijc[[. ",
" .[[[[[[}klmn{4aoc[[. ",
" .[[[[[[p|>q3rstoc[[. ",
" .................... ",
"                      "};
