/* XPM */
static char * SET_LUT2_ICON_xpm[] = {
"22 22 64 1",
" 	c None",
".	c #CCCCCC",
"+	c #C0C0C0",
"@	c #5A5A5A",
"#	c #181818",
"$	c #040404",
"%	c #5B5B5B",
"&	c #C4C4C4",
"*	c #252525",
"=	c #4D4D4D",
"-	c #AEAEAE",
";	c #C7C7C7",
">	c #4E4E4E",
",	c #272727",
"'	c #676767",
")	c #3C3C3C",
"!	c #686868",
"~	c #232323",
"{	c #9C9C9C",
"]	c #9B9B9B",
"^	c #242424",
"/	c #060606",
"(	c #BDBDBD",
"_	c #070707",
":	c #C3C3C3",
"<	c #AFAFAF",
"[	c #C8C8C8",
"}	c #4F4F4F",
"|	c #BFBFBF",
"1	c #595959",
"2	c #161616",
"3	c #030303",
"4	c #171717",
"5	c #353635",
"6	c #363636",
"7	c #454445",
"8	c #535353",
"9	c #626161",
"0	c #707071",
"a	c #7F7F7F",
"b	c #8E8E8E",
"c	c #ABABAB",
"d	c #FFFFFF",
"e	c #363536",
"f	c #444444",
"g	c #626261",
"h	c #707070",
"i	c #8E8D8E",
"j	c #9C9D9D",
"k	c #535253",
"l	c #616161",
"m	c #7F7E7F",
"n	c #8D8D8E",
"o	c #9D9C9C",
"p	c #444445",
"q	c #616261",
"r	c #707170",
"s	c #7E7F7F",
"t	c #8E8E8D",
"u	c #363635",
"v	c #525252",
"w	c #7F7E7E",
"x	c #9C9D9C",
"y	c #AAAAAB",
"                      ",
" .................... ",
" .................... ",
" ......+@#$#%+....... ",
" .....&*=-;->,&...... ",
" .....').....)!...... ",
" .....~{.....]^...... ",
" ...../(.....(_...... ",
" ...../(.....(_...... ",
" .....~{.....]^...... ",
" .....').....)!...... ",
" .....:^><[<},&...... ",
" ......|1234@+....... ",
" .................... ",
" .................... ",
" .555567890ab{cddddd. ",
" .5555ef8ghaijcddddd. ",
" .5555e7klhmnocddddd. ",
" .55555p8qrst{cddddd. ",
" .5555ufv9hwbxyddddd. ",
" .................... ",
"                      "};
